<svg width="1433" height="663" viewBox="0 0 1433 663" fill="none" xmlns="http://www.w3.org/2000/svg">
<path d="M331.125 0.0898438C514 0.0898438 662.251 148.339 662.251 331.215C662.251 514.09 514 662.34 331.125 662.34C148.25 662.34 6.0249e-05 514.09 0 331.215C0 148.339 148.25 0.0900088 331.125 0.0898438ZM337.343 116.46C209.489 116.46 105.915 220.034 105.915 347.888C105.915 381.653 113.123 413.902 126.212 442.735L245.53 322.658L315.148 377.101L469.37 201.823L565.734 310.518C547.903 200.495 452.487 116.46 337.343 116.46Z" fill="white"/>
<path d="M479.045 239.761L324.824 415.038L255.206 360.406L71.3918 545.928L255.395 421.867L346.449 478.017L479.045 239.761Z" fill="#CCDC29"/>
<path d="M892.567 89.6507H878.749V195.455L863.944 195.652L795.053 114.128H794.263V172.952H812.029V195.455H755.771V172.952H769.589V89.6507H753.6V67.1475H788.539L853.285 143.342H854.074V89.6507H835.519V67.1475H892.567V89.6507Z" fill="white"/>
<path d="M984.233 167.425C983.575 175.321 979.692 182.295 972.586 188.349C965.48 194.402 955.544 197.429 942.779 197.429C929.488 197.429 918.5 193.678 909.814 186.177C901.26 178.676 896.983 167.491 896.983 152.62C896.983 138.934 900.866 127.551 908.63 118.471C916.526 109.259 927.514 104.653 941.595 104.653C953.965 104.653 963.966 108.206 971.599 115.312C979.363 122.418 983.311 131.762 983.443 143.342C983.443 147.685 982.982 151.962 982.061 156.173H923.632C925.079 170.254 932.054 177.295 944.556 177.295C951.399 177.295 956.005 175.65 958.374 172.36C960.874 169.07 962.387 166.109 962.914 163.477L984.233 167.425ZM957.189 141.368C957.716 136.894 956.729 132.683 954.228 128.735C951.86 124.787 947.648 122.813 941.595 122.813C936.331 122.813 932.252 124.524 929.356 127.946C926.461 131.367 924.619 135.841 923.829 141.368H957.189Z" fill="white"/>
<path d="M1096.63 148.87C1096.63 162.029 1093.14 173.412 1086.17 183.019C1079.32 192.626 1069.19 197.429 1055.77 197.429C1043.27 197.429 1034.19 193.02 1028.53 184.203V217.761H1044.32V237.5H991.22V217.761H1003.06V125.577H990.233V106.429H1028.53V123.405C1030.9 118.273 1034.45 113.865 1039.19 110.18C1043.92 106.495 1050.37 104.653 1058.53 104.653C1069.85 104.653 1079 108.535 1085.97 116.299C1093.08 124.063 1096.63 134.92 1096.63 148.87ZM1070.18 151.436C1070.18 142.75 1068.2 136.17 1064.26 131.696C1060.44 127.09 1055.51 124.787 1049.45 124.787C1042.87 124.787 1037.81 127.222 1034.25 132.091C1030.83 136.96 1028.99 143.145 1028.73 150.646L1028.53 153.804C1028.53 161.042 1030.44 166.767 1034.25 170.978C1038.07 175.189 1043.14 177.295 1049.45 177.295C1055.51 177.295 1060.44 175.189 1064.26 170.978C1068.2 166.767 1070.18 160.253 1070.18 151.436Z" fill="white"/>
<path d="M1114.45 112.746C1122.22 109.588 1128.66 107.482 1133.8 106.429C1139.06 105.245 1145.31 104.653 1152.55 104.653C1162.16 104.653 1170.45 107.153 1177.42 112.154C1184.4 117.155 1187.88 124.721 1187.88 134.854V173.544C1187.88 178.15 1189.92 180.453 1194 180.453C1195.19 180.453 1196.44 180.256 1197.75 179.861L1197.95 193.284C1192.82 196.047 1187.49 197.429 1181.96 197.429C1170.25 197.429 1163.74 191.573 1162.42 179.861V179.663C1159.92 184.138 1156.3 188.217 1151.56 191.902C1146.96 195.587 1141.03 197.429 1133.8 197.429C1127.35 197.429 1121.16 195.521 1115.24 191.704C1109.32 187.888 1106.36 181.308 1106.36 171.965C1106.36 161.042 1110.7 153.804 1119.39 150.251C1128.2 146.698 1137.68 144.922 1147.81 144.922C1153.47 144.922 1158.34 145.185 1162.42 145.711V142.75C1162.42 138.144 1161.76 133.67 1160.45 129.327C1159.26 124.985 1155.05 122.813 1147.81 122.813C1145.18 122.813 1142.75 123.011 1140.51 123.405C1138.4 123.669 1136.3 124.327 1134.19 125.379L1130.84 138.013L1110.5 135.841L1114.45 112.746ZM1162.42 159.134V157.95C1160.31 157.687 1158.14 157.423 1155.91 157.16C1153.8 156.897 1151.69 156.765 1149.59 156.765C1145.11 156.765 1141.17 157.621 1137.75 159.332C1134.32 160.911 1132.61 164.135 1132.61 169.004C1132.61 171.899 1133.4 174.334 1134.98 176.308C1136.56 178.282 1139.26 179.269 1143.07 179.269C1147.55 179.269 1151.69 177.689 1155.51 174.531C1159.46 171.241 1161.76 166.109 1162.42 159.134Z" fill="white"/>
<path d="M1253.59 195.455H1204.44V176.308H1216.28V78.9913H1203.45V59.6465H1241.75V176.308H1253.59V195.455Z" fill="white"/>
<path d="M865.129 384.513C860.917 389.118 854.14 392.869 844.797 395.764C835.585 398.659 826.373 400.107 817.161 400.107C798.869 400.107 783.538 394.251 771.168 382.539C758.798 370.695 752.613 355.232 752.613 336.15C752.613 326.149 754.718 315.884 758.929 305.357C763.141 294.829 770.049 285.946 779.656 278.708C789.263 271.47 802.159 267.851 818.346 267.851C829.268 267.851 838.678 269.496 846.573 272.786C854.469 275.945 860.457 279.432 864.536 283.248L867.695 313.055L846.179 315.029L843.415 298.053C839.993 295.816 835.848 294.105 830.979 292.921C826.11 291.736 821.504 291.144 817.161 291.144C806.107 291.144 797.29 294.829 790.71 302.198C784.262 309.568 781.038 320.293 781.038 334.374C781.038 349.244 784.591 360.035 791.697 366.747C798.803 373.458 807.884 376.814 818.938 376.814C829.334 376.814 837.493 375.038 843.415 371.484L846.179 352.337L867.695 354.311L865.129 384.513Z" fill="white"/>
<path d="M927.615 398.133H878.464V378.985H890.307V281.669H877.477V262.324H915.771V378.985H927.615V398.133Z" fill="white"/>
<path d="M948.373 293.316V266.864H973.837V293.316H948.373ZM986.668 398.133H937.516V378.985H949.36V328.452H936.529V309.107H974.824V378.985H986.668V398.133Z" fill="white"/>
<path d="M1160.74 398.133H1123.43V347.994C1123.43 340.362 1122.11 334.9 1119.48 331.61C1116.98 328.32 1113.23 326.675 1108.23 326.675C1102.18 326.675 1097.77 328.649 1095 332.597C1092.37 336.545 1091.06 341.612 1091.06 347.797V378.985H1102.9V398.133H1065.59V347.994C1065.59 340.362 1064.28 334.9 1061.64 331.61C1059.14 328.32 1055.39 326.675 1050.39 326.675C1044.21 326.675 1039.8 328.649 1037.17 332.597C1034.54 336.545 1033.22 341.612 1033.22 347.797V378.985H1050.2V398.133H995.911V378.985H1007.76V328.452H996.109V309.107H1033.22V322.53C1038.88 312.397 1047.89 307.331 1060.26 307.331C1066.71 307.331 1072.63 308.91 1078.03 312.068C1083.42 315.226 1087.17 320.03 1089.28 326.478C1094.54 313.713 1104.22 307.331 1118.3 307.331C1126.32 307.331 1133.43 309.831 1139.62 314.832C1145.8 319.832 1148.89 327.597 1148.89 338.124V378.985H1160.74V398.133Z" fill="white"/>
<path d="M1176.52 315.424C1184.29 312.266 1190.74 310.16 1195.87 309.107C1201.13 307.923 1207.38 307.331 1214.62 307.331C1224.23 307.331 1232.52 309.831 1239.49 314.832C1246.47 319.832 1249.96 327.399 1249.96 337.532V376.222C1249.96 380.828 1252 383.131 1256.07 383.131C1257.26 383.131 1258.51 382.933 1259.83 382.539L1260.02 395.962C1254.89 398.725 1249.56 400.107 1244.03 400.107C1232.32 400.107 1225.81 394.251 1224.49 382.539V382.341C1221.99 386.815 1218.37 390.895 1213.63 394.58C1209.03 398.264 1203.11 400.107 1195.87 400.107C1189.42 400.107 1183.24 398.199 1177.31 394.382C1171.39 390.566 1168.43 383.986 1168.43 374.643C1168.43 363.72 1172.77 356.482 1181.46 352.929C1190.28 349.376 1199.75 347.599 1209.88 347.599C1215.54 347.599 1220.41 347.863 1224.49 348.389V345.428C1224.49 340.822 1223.83 336.348 1222.52 332.005C1221.33 327.662 1217.12 325.491 1209.88 325.491C1207.25 325.491 1204.82 325.688 1202.58 326.083C1200.47 326.346 1198.37 327.004 1196.26 328.057L1192.91 340.691L1172.58 338.519L1176.52 315.424ZM1224.49 361.812V360.628C1222.39 360.364 1220.21 360.101 1217.98 359.838C1215.87 359.575 1213.77 359.443 1211.66 359.443C1207.19 359.443 1203.24 360.299 1199.82 362.009C1196.4 363.589 1194.68 366.813 1194.68 371.682C1194.68 374.577 1195.47 377.012 1197.05 378.985C1198.63 380.959 1201.33 381.946 1205.15 381.946C1209.62 381.946 1213.77 380.367 1217.58 377.209C1221.53 373.919 1223.83 368.787 1224.49 361.812Z" fill="white"/>
<path d="M1343.1 370.497C1341.78 380.762 1338.23 388.263 1332.44 393.001C1326.65 397.738 1319.15 400.107 1309.94 400.107C1300.07 400.107 1292.04 397.672 1285.85 392.803C1279.8 387.802 1276.77 380.696 1276.77 371.484V327.268H1264.14V309.107H1276.77V282.064H1302.24V309.107H1334.22V327.268H1302.24V367.142C1302.24 374.906 1305.79 378.788 1312.9 378.788C1314.48 378.788 1316.58 378.13 1319.21 376.814C1321.98 375.367 1323.75 371.353 1324.54 364.773L1343.1 370.497Z" fill="white"/>
<path d="M1433 370.103C1432.34 377.998 1428.46 384.973 1421.35 391.027C1414.25 397.08 1404.31 400.107 1391.55 400.107C1378.26 400.107 1367.27 396.356 1358.58 388.855C1350.03 381.354 1345.75 370.168 1345.75 355.298C1345.75 341.612 1349.63 330.229 1357.4 321.148C1365.29 311.937 1376.28 307.331 1390.36 307.331C1402.73 307.331 1412.73 310.884 1420.37 317.99C1428.13 325.096 1432.08 334.44 1432.21 346.02C1432.21 350.363 1431.75 354.64 1430.83 358.851H1372.4C1373.85 372.932 1380.82 379.972 1393.32 379.972C1400.17 379.972 1404.77 378.327 1407.14 375.038C1409.64 371.748 1411.16 368.787 1411.68 366.155L1433 370.103ZM1405.96 344.046C1406.48 339.572 1405.5 335.361 1403 331.413C1400.63 327.465 1396.42 325.491 1390.36 325.491C1385.1 325.491 1381.02 327.202 1378.12 330.623C1375.23 334.045 1373.39 338.519 1372.6 344.046H1405.96Z" fill="white"/>
<path d="M890.395 600.811H836.309V578.308H850.126V546.922H795.843V578.308H809.66V600.811H755.574V578.308H769.391V495.006H755.574V472.503H809.66V495.006H795.843V524.616H850.126V495.006H836.309V472.503H890.395V495.006H876.578V578.308H890.395V600.811Z" fill="white"/>
<path d="M1007.09 600.811H968.799V587.19C962.877 597.455 953.336 602.587 940.176 602.587C931.754 602.587 924.45 600.087 918.265 595.086C912.08 590.086 908.988 582.321 908.988 571.794V530.933H897.144V511.785H934.452V561.924C934.452 569.688 935.702 575.215 938.202 578.505C940.834 581.663 944.65 583.242 949.651 583.242C955.705 583.242 960.376 581.269 963.666 577.321C967.088 573.373 968.799 568.306 968.799 562.121V530.933H954.389V511.785H994.263V581.663H1007.09V600.811Z" fill="white"/>
<path d="M1114.47 554.225C1114.47 567.385 1110.98 578.768 1104.01 588.375C1097.16 597.981 1087.03 602.785 1073.61 602.785C1060.05 602.785 1050.51 597.652 1044.99 587.388C1044.72 589.625 1044.39 591.862 1044 594.099C1043.74 596.336 1043.41 598.574 1043.01 600.811H1017.55C1018.47 596.205 1019.26 591.599 1019.92 586.993C1020.57 582.387 1020.9 577.847 1020.9 573.373V484.347H1009.06V465.002H1046.37V528.761C1048.74 523.629 1052.29 519.22 1057.03 515.536C1061.9 511.851 1068.34 510.009 1076.37 510.009C1087.56 510.009 1096.7 513.891 1103.81 521.655C1110.92 529.419 1114.47 540.276 1114.47 554.225ZM1088.02 556.397C1088.02 547.843 1086.18 541.329 1082.49 536.854C1078.81 532.38 1073.94 530.143 1067.88 530.143C1061.04 530.143 1055.71 532.643 1051.89 537.644C1048.21 542.645 1046.37 548.435 1046.37 555.015V557.186C1046.37 564.424 1048.14 570.543 1051.7 575.544C1055.38 580.413 1060.58 582.848 1067.29 582.848C1073.08 582.848 1077.95 580.742 1081.9 576.531C1085.98 572.188 1088.02 565.477 1088.02 556.397Z" fill="white"/>
</svg>
