<svg width="1433" height="663" viewBox="0 0 1433 663" fill="none" xmlns="http://www.w3.org/2000/svg">
<circle cx="331.125" cy="331.125" r="331.125" fill="#121212"/>
<path d="M245.53 322.568L315.148 377.01L469.37 201.733L565.734 310.428C547.903 200.405 452.487 116.37 337.342 116.37C209.488 116.37 105.915 219.943 105.915 347.797C105.915 381.563 113.123 413.811 126.212 442.645L245.53 322.568Z" fill="white"/>
<path d="M479.045 239.671L324.823 414.949L255.206 360.317L71.3916 545.838L255.395 421.778L346.449 477.927L479.045 239.671Z" fill="#CCDC29"/>
<path d="M892.566 89.5609H878.748V195.365L863.944 195.563L795.052 114.038H794.263V172.862H812.029V195.365H755.771V172.862H769.588V89.5609H753.599V67.0577H788.538L853.284 143.253H854.074V89.5609H835.519V67.0577H892.566V89.5609Z" fill="#121212"/>
<path d="M984.232 167.335C983.574 175.231 979.692 182.205 972.586 188.259C965.479 194.312 955.544 197.339 942.779 197.339C929.487 197.339 918.499 193.589 909.814 186.088C901.26 178.587 896.983 167.401 896.983 152.53C896.983 138.844 900.865 127.461 908.629 118.381C916.525 109.169 927.514 104.563 941.594 104.563C953.965 104.563 963.966 108.116 971.599 115.222C979.363 122.329 983.311 131.672 983.442 143.253C983.442 147.595 982.982 151.872 982.061 156.083H923.631C925.079 170.164 932.054 177.205 944.555 177.205C951.398 177.205 956.004 175.56 958.373 172.27C960.873 168.98 962.387 166.019 962.913 163.387L984.232 167.335ZM957.189 141.279C957.715 136.804 956.728 132.593 954.228 128.645C951.859 124.697 947.648 122.723 941.594 122.723C936.331 122.723 932.251 124.434 929.356 127.856C926.461 131.277 924.618 135.752 923.829 141.279H957.189Z" fill="#121212"/>
<path d="M1096.63 148.78C1096.63 161.939 1093.14 173.323 1086.17 182.929C1079.32 192.536 1069.19 197.339 1055.77 197.339C1043.27 197.339 1034.19 192.931 1028.53 184.114V217.671H1044.32V237.411H991.22V217.671H1003.06V125.487H990.233V106.34H1028.53V123.316C1030.9 118.183 1034.45 113.775 1039.19 110.09C1043.92 106.405 1050.37 104.563 1058.53 104.563C1069.85 104.563 1079 108.445 1085.97 116.209C1093.08 123.974 1096.63 134.83 1096.63 148.78ZM1070.18 151.346C1070.18 142.66 1068.2 136.081 1064.26 131.606C1060.44 127 1055.5 124.697 1049.45 124.697C1042.87 124.697 1037.8 127.132 1034.25 132.001C1030.83 136.87 1028.99 143.055 1028.72 150.556L1028.53 153.715C1028.53 160.952 1030.44 166.677 1034.25 170.888C1038.07 175.099 1043.13 177.205 1049.45 177.205C1055.5 177.205 1060.44 175.099 1064.26 170.888C1068.2 166.677 1070.18 160.163 1070.18 151.346Z" fill="#121212"/>
<path d="M1114.45 112.656C1122.22 109.498 1128.66 107.392 1133.8 106.34C1139.06 105.155 1145.31 104.563 1152.55 104.563C1162.16 104.563 1170.45 107.063 1177.42 112.064C1184.4 117.065 1187.88 124.632 1187.88 134.765V173.454C1187.88 178.06 1189.92 180.363 1194 180.363C1195.19 180.363 1196.44 180.166 1197.75 179.771L1197.95 193.194C1192.82 195.957 1187.49 197.339 1181.96 197.339C1170.25 197.339 1163.74 191.483 1162.42 179.771V179.573C1159.92 184.048 1156.3 188.127 1151.56 191.812C1146.96 195.497 1141.03 197.339 1133.8 197.339C1127.35 197.339 1121.16 195.431 1115.24 191.615C1109.32 187.798 1106.36 181.218 1106.36 171.875C1106.36 160.952 1110.7 153.715 1119.39 150.161C1128.2 146.608 1137.68 144.832 1147.81 144.832C1153.47 144.832 1158.34 145.095 1162.42 145.621V142.66C1162.42 138.055 1161.76 133.58 1160.45 129.237C1159.26 124.895 1155.05 122.723 1147.81 122.723C1145.18 122.723 1142.75 122.921 1140.51 123.316C1138.4 123.579 1136.3 124.237 1134.19 125.29L1130.84 137.923L1110.5 135.752L1114.45 112.656ZM1162.42 159.044V157.86C1160.31 157.597 1158.14 157.334 1155.9 157.07C1153.8 156.807 1151.69 156.676 1149.59 156.676C1145.11 156.676 1141.17 157.531 1137.74 159.242C1134.32 160.821 1132.61 164.045 1132.61 168.914C1132.61 171.809 1133.4 174.244 1134.98 176.218C1136.56 178.192 1139.26 179.179 1143.07 179.179C1147.55 179.179 1151.69 177.6 1155.51 174.441C1159.46 171.151 1161.76 166.019 1162.42 159.044Z" fill="#121212"/>
<path d="M1253.59 195.365H1204.44V176.218H1216.28V78.9015H1203.45V59.5566H1241.74V176.218H1253.59V195.365Z" fill="#121212"/>
<path d="M865.128 384.423C860.917 389.029 854.14 392.779 844.796 395.674C835.584 398.569 826.373 400.017 817.161 400.017C798.869 400.017 783.538 394.161 771.168 382.449C758.797 370.605 752.612 355.142 752.612 336.061C752.612 326.059 754.718 315.795 758.929 305.267C763.14 294.739 770.049 285.856 779.656 278.618C789.262 271.381 802.159 267.762 818.345 267.762C829.268 267.762 838.677 269.407 846.573 272.696C854.469 275.855 860.456 279.342 864.536 283.158L867.694 312.965L846.178 314.939L843.415 297.963C839.993 295.726 835.848 294.015 830.979 292.831C826.109 291.647 821.504 291.054 817.161 291.054C806.107 291.054 797.29 294.739 790.71 302.109C784.261 309.478 781.037 320.203 781.037 334.284C781.037 349.155 784.59 359.946 791.697 366.657C798.803 373.369 807.883 376.724 818.937 376.724C829.334 376.724 837.493 374.948 843.415 371.395L846.178 352.247L867.694 354.221L865.128 384.423Z" fill="#121212"/>
<path d="M927.615 398.043H878.463V378.896H890.307V281.579H877.476V262.234H915.771V378.896H927.615V398.043Z" fill="#121212"/>
<path d="M948.372 293.226V266.775H973.836V293.226H948.372ZM986.667 398.043H937.515V378.896H949.359V328.362H936.528V309.017H974.823V378.896H986.667V398.043Z" fill="#121212"/>
<path d="M1160.74 398.043H1123.43V347.904C1123.43 340.272 1122.11 334.81 1119.48 331.521C1116.98 328.231 1113.23 326.586 1108.23 326.586C1102.18 326.586 1097.77 328.56 1095 332.508C1092.37 336.455 1091.06 341.522 1091.06 347.707V378.896H1102.9V398.043H1065.59V347.904C1065.59 340.272 1064.28 334.81 1061.64 331.521C1059.14 328.231 1055.39 326.586 1050.39 326.586C1044.21 326.586 1039.8 328.56 1037.17 332.508C1034.53 336.455 1033.22 341.522 1033.22 347.707V378.896H1050.19V398.043H995.911V378.896H1007.75V328.362H996.108V309.017H1033.22V322.44C1038.88 312.307 1047.89 307.241 1060.26 307.241C1066.71 307.241 1072.63 308.82 1078.03 311.978C1083.42 315.137 1087.17 319.94 1089.28 326.388C1094.54 313.623 1104.22 307.241 1118.3 307.241C1126.32 307.241 1133.43 309.741 1139.62 314.742C1145.8 319.743 1148.89 327.507 1148.89 338.035V378.896H1160.74V398.043Z" fill="#121212"/>
<path d="M1176.52 315.334C1184.29 312.176 1190.74 310.07 1195.87 309.017C1201.13 307.833 1207.38 307.241 1214.62 307.241C1224.23 307.241 1232.52 309.741 1239.49 314.742C1246.47 319.743 1249.95 327.309 1249.95 337.442V376.132C1249.95 380.738 1251.99 383.041 1256.07 383.041C1257.26 383.041 1258.51 382.844 1259.82 382.449L1260.02 395.872C1254.89 398.635 1249.56 400.017 1244.03 400.017C1232.32 400.017 1225.81 394.161 1224.49 382.449V382.251C1221.99 386.726 1218.37 390.805 1213.63 394.49C1209.03 398.175 1203.11 400.017 1195.87 400.017C1189.42 400.017 1183.24 398.109 1177.31 394.293C1171.39 390.476 1168.43 383.896 1168.43 374.553C1168.43 363.63 1172.77 356.392 1181.46 352.839C1190.28 349.286 1199.75 347.51 1209.88 347.51C1215.54 347.51 1220.41 347.773 1224.49 348.299V345.338C1224.49 340.732 1223.83 336.258 1222.52 331.915C1221.33 327.573 1217.12 325.401 1209.88 325.401C1207.25 325.401 1204.82 325.599 1202.58 325.993C1200.47 326.257 1198.37 326.915 1196.26 327.967L1192.91 340.601L1172.58 338.429L1176.52 315.334ZM1224.49 361.722V360.538C1222.39 360.275 1220.21 360.011 1217.98 359.748C1215.87 359.485 1213.77 359.353 1211.66 359.353C1207.19 359.353 1203.24 360.209 1199.82 361.92C1196.39 363.499 1194.68 366.723 1194.68 371.592C1194.68 374.487 1195.47 376.922 1197.05 378.896C1198.63 380.87 1201.33 381.857 1205.15 381.857C1209.62 381.857 1213.77 380.277 1217.58 377.119C1221.53 373.829 1223.83 368.697 1224.49 361.722Z" fill="#121212"/>
<path d="M1343.1 370.408C1341.78 380.672 1338.23 388.173 1332.44 392.911C1326.65 397.648 1319.15 400.017 1309.94 400.017C1300.07 400.017 1292.04 397.582 1285.85 392.713C1279.8 387.713 1276.77 380.606 1276.77 371.395V327.178H1264.14V309.017H1276.77V281.974H1302.24V309.017H1334.22V327.178H1302.24V367.052C1302.24 374.816 1305.79 378.698 1312.9 378.698C1314.48 378.698 1316.58 378.04 1319.21 376.724C1321.98 375.277 1323.75 371.263 1324.54 364.683L1343.1 370.408Z" fill="#121212"/>
<path d="M1433 370.013C1432.34 377.909 1428.46 384.883 1421.35 390.937C1414.25 396.99 1404.31 400.017 1391.55 400.017C1378.26 400.017 1367.27 396.266 1358.58 388.765C1350.03 381.264 1345.75 370.079 1345.75 355.208C1345.75 341.522 1349.63 330.139 1357.4 321.059C1365.29 311.847 1376.28 307.241 1390.36 307.241C1402.73 307.241 1412.73 310.794 1420.37 317.9C1428.13 325.006 1432.08 334.35 1432.21 345.93C1432.21 350.273 1431.75 354.55 1430.83 358.761H1372.4C1373.85 372.842 1380.82 379.883 1393.32 379.883C1400.17 379.883 1404.77 378.238 1407.14 374.948C1409.64 371.658 1411.15 368.697 1411.68 366.065L1433 370.013ZM1405.96 343.957C1406.48 339.482 1405.5 335.271 1403 331.323C1400.63 327.375 1396.42 325.401 1390.36 325.401C1385.1 325.401 1381.02 327.112 1378.12 330.534C1375.23 333.955 1373.39 338.429 1372.6 343.957H1405.96Z" fill="#121212"/>
<path d="M890.395 600.721H836.308V578.218H850.126V546.832H795.842V578.218H809.66V600.721H755.573V578.218H769.391V494.917H755.573V472.413H809.66V494.917H795.842V524.526H850.126V494.917H836.308V472.413H890.395V494.917H876.577V578.218H890.395V600.721Z" fill="#121212"/>
<path d="M1007.09 600.721H968.798V587.101C962.876 597.365 953.335 602.497 940.176 602.497C931.753 602.497 924.45 599.997 918.265 594.996C912.08 589.996 908.987 582.231 908.987 571.704V530.843H897.143V511.695H934.451V561.834C934.451 569.598 935.701 575.125 938.202 578.415C940.834 581.573 944.65 583.153 949.651 583.153C955.704 583.153 960.376 581.179 963.666 577.231C967.087 573.283 968.798 568.216 968.798 562.031V530.843H954.388V511.695H994.262V581.573H1007.09V600.721Z" fill="#121212"/>
<path d="M1114.47 554.135C1114.47 567.295 1110.98 578.678 1104.01 588.285C1097.16 597.892 1087.03 602.695 1073.61 602.695C1060.05 602.695 1050.51 597.563 1044.99 587.298C1044.72 589.535 1044.39 591.772 1044 594.009C1043.74 596.247 1043.41 598.484 1043.01 600.721H1017.55C1018.47 596.115 1019.26 591.509 1019.92 586.903C1020.57 582.297 1020.9 577.757 1020.9 573.283V484.257H1009.06V464.912H1046.37V528.671C1048.74 523.539 1052.29 519.13 1057.03 515.446C1061.9 511.761 1068.34 509.919 1076.37 509.919C1087.56 509.919 1096.7 513.801 1103.81 521.565C1110.92 529.329 1114.47 540.186 1114.47 554.135ZM1088.02 556.307C1088.02 547.753 1086.18 541.239 1082.49 536.765C1078.81 532.29 1073.94 530.053 1067.88 530.053C1061.04 530.053 1055.71 532.553 1051.89 537.554C1048.21 542.555 1046.37 548.345 1046.37 554.925V557.096C1046.37 564.334 1048.14 570.453 1051.7 575.454C1055.38 580.323 1060.58 582.758 1067.29 582.758C1073.08 582.758 1077.95 580.652 1081.9 576.441C1085.98 572.098 1088.02 565.387 1088.02 556.307Z" fill="#121212"/>
</svg>
