<svg width="10705" height="4947" viewBox="0 0 10705 4947" fill="none" xmlns="http://www.w3.org/2000/svg">
<circle cx="2473.5" cy="2473.5" r="2473.5" fill="#121212"/>
<path d="M1834.11 2409.6L2354.15 2816.28L3506.18 1506.96L4226.03 2318.91C4092.83 1497.04 3380.07 869.301 2519.94 869.301C1564.87 869.301 791.184 1642.99 791.184 2598.06C791.184 2850.29 845.03 3091.18 942.804 3306.57L1834.11 2409.6Z" fill="white"/>
<path d="M3578.46 1790.36L2426.43 3099.68L1906.38 2691.58L533.297 4077.42L1907.8 3150.69L2587.97 3570.13L3578.46 1790.36Z" fill="#CCDC29"/>
<path d="M6667.45 669.015H6564.23V1459.37L6453.64 1460.85L5939.03 851.858H5933.13V1291.27H6065.84V1459.37H5645.59V1291.27H5748.81V669.015H5629.37V500.917H5890.37L6374.02 1070.09H6379.92V669.015H6241.31V500.917H6667.45V669.015Z" fill="#121212"/>
<path d="M7352.19 1249.99C7347.28 1308.97 7318.28 1361.07 7265.2 1406.29C7212.11 1451.51 7137.89 1474.12 7042.54 1474.12C6943.25 1474.12 6861.17 1446.1 6796.29 1390.07C6732.39 1334.03 6700.45 1250.48 6700.45 1139.39C6700.45 1037.16 6729.45 952.127 6787.44 884.298C6846.43 815.486 6928.51 781.08 7033.69 781.08C7126.1 781.08 7200.81 807.622 7257.82 860.706C7315.82 913.789 7345.31 983.584 7346.3 1070.09C7346.3 1102.53 7342.86 1134.48 7335.97 1165.94H6899.51C6910.32 1271.12 6962.42 1323.71 7055.81 1323.71C7106.93 1323.71 7141.33 1311.43 7159.03 1286.85C7177.71 1262.27 7189.01 1240.16 7192.94 1220.49L7352.19 1249.99ZM7150.18 1055.35C7154.11 1021.92 7146.74 990.466 7128.06 960.975C7110.37 931.484 7078.91 916.738 7033.69 916.738C6994.37 916.738 6963.9 929.518 6942.27 955.077C6920.64 980.635 6906.88 1014.06 6900.98 1055.35H7150.18Z" fill="#121212"/>
<path d="M8191.8 1111.38C8191.8 1209.68 8165.75 1294.71 8113.65 1366.47C8062.53 1438.24 7986.84 1474.12 7886.57 1474.12C7793.18 1474.12 7725.35 1441.19 7683.08 1375.32V1625.99H7801.04V1773.45H7404.39V1625.99H7492.86V937.382H7397.02V794.351H7683.08V921.162C7700.78 882.824 7727.32 849.892 7762.71 822.367C7798.1 794.843 7846.26 781.08 7907.21 781.08C7991.75 781.08 8060.07 810.08 8112.17 868.078C8165.26 926.077 8191.8 1007.18 8191.8 1111.38ZM7994.21 1130.55C7994.21 1065.67 7979.46 1016.52 7949.97 983.093C7921.47 948.687 7884.6 931.484 7839.38 931.484C7790.23 931.484 7752.38 949.67 7725.84 986.042C7700.28 1022.41 7686.52 1068.62 7684.56 1124.65L7683.08 1148.24C7683.08 1202.31 7697.33 1245.07 7725.84 1276.53C7754.35 1307.98 7792.2 1323.71 7839.38 1323.71C7884.6 1323.71 7921.47 1307.98 7949.97 1276.53C7979.46 1245.07 7994.21 1196.41 7994.21 1130.55Z" fill="#121212"/>
<path d="M8324.93 841.537C8382.93 817.944 8431.1 802.215 8469.44 794.351C8508.76 785.504 8555.45 781.08 8609.52 781.08C8681.28 781.08 8743.21 799.758 8795.31 837.113C8847.41 874.468 8873.47 930.992 8873.47 1006.69V1295.7C8873.47 1330.1 8888.7 1347.31 8919.18 1347.31C8928.02 1347.31 8937.36 1345.83 8947.19 1342.88L8948.67 1443.15C8910.33 1463.79 8870.52 1474.12 8829.23 1474.12C8741.74 1474.12 8693.08 1430.37 8683.25 1342.88V1341.41C8664.57 1374.83 8637.54 1405.3 8602.15 1432.83C8567.74 1460.35 8523.51 1474.12 8469.44 1474.12C8421.27 1474.12 8375.07 1459.86 8330.83 1431.35C8286.6 1402.85 8264.48 1353.7 8264.48 1283.9C8264.48 1202.31 8296.92 1148.24 8361.8 1121.7C8427.66 1095.16 8498.44 1081.89 8574.13 1081.89C8616.4 1081.89 8652.77 1083.85 8683.25 1087.79V1065.67C8683.25 1031.26 8678.33 997.838 8668.5 965.398C8659.66 932.958 8628.2 916.738 8574.13 916.738C8554.47 916.738 8536.29 918.213 8519.57 921.162C8503.85 923.128 8488.12 928.043 8472.39 935.907L8447.32 1030.28L8295.44 1014.06L8324.93 841.537ZM8683.25 1188.05V1179.21C8667.52 1177.24 8651.3 1175.28 8634.59 1173.31C8618.86 1171.34 8603.13 1170.36 8587.4 1170.36C8553.98 1170.36 8524.49 1176.75 8498.93 1189.53C8473.37 1201.33 8460.59 1225.41 8460.59 1261.78C8460.59 1283.41 8466.49 1301.59 8478.29 1316.34C8490.08 1331.09 8510.24 1338.46 8538.74 1338.46C8572.17 1338.46 8603.13 1326.66 8631.64 1303.07C8661.13 1278.49 8678.33 1240.16 8683.25 1188.05Z" fill="#121212"/>
<path d="M9364.28 1459.37H8997.12V1316.34H9085.59V589.389H8989.75V444.884H9275.81V1316.34H9364.28V1459.37Z" fill="#121212"/>
<path d="M6462.49 2871.63C6431.03 2906.03 6380.41 2934.05 6310.61 2955.68C6241.8 2977.3 6172.99 2988.12 6104.18 2988.12C5967.54 2988.12 5853.01 2944.37 5760.61 2856.88C5668.2 2768.41 5622 2652.9 5622 2510.36C5622 2435.65 5637.73 2358.98 5669.19 2280.33C5700.64 2201.69 5752.25 2135.34 5824.01 2081.27C5895.77 2027.2 5992.11 2000.17 6113.02 2000.17C6194.62 2000.17 6264.9 2012.46 6323.88 2037.03C6382.87 2060.63 6427.59 2086.68 6458.07 2115.19L6481.66 2337.84L6320.93 2352.59L6300.29 2225.78C6274.73 2209.06 6243.77 2196.29 6207.39 2187.44C6171.02 2178.59 6136.62 2174.17 6104.18 2174.17C6021.6 2174.17 5955.74 2201.69 5906.59 2256.74C5858.42 2311.79 5834.33 2391.91 5834.33 2497.09C5834.33 2608.18 5860.88 2688.78 5913.96 2738.92C5967.04 2789.05 6034.87 2814.12 6117.45 2814.12C6195.11 2814.12 6256.05 2800.85 6300.29 2774.31L6320.93 2631.28L6481.66 2646.02L6462.49 2871.63Z" fill="#121212"/>
<path d="M6929.27 2973.37H6562.1V2830.34H6650.58V2103.39H6554.73V1958.88H6840.79V2830.34H6929.27V2973.37Z" fill="#121212"/>
<path d="M7084.32 2190.39V1992.8H7274.54V2190.39H7084.32ZM7370.38 2973.37H7003.22V2830.34H7091.7V2452.86H6995.85V2308.35H7281.91V2830.34H7370.38V2973.37Z" fill="#121212"/>
<path d="M8670.68 2973.37H8391.99V2598.84C8391.99 2541.82 8382.16 2501.03 8362.5 2476.45C8343.82 2451.87 8315.81 2439.59 8278.45 2439.59C8233.23 2439.59 8200.3 2454.33 8179.66 2483.82C8160 2513.31 8150.17 2551.16 8150.17 2597.36V2830.34H8238.64V2973.37H7959.95V2598.84C7959.95 2541.82 7950.12 2501.03 7930.46 2476.45C7911.78 2451.87 7883.76 2439.59 7846.41 2439.59C7800.21 2439.59 7767.28 2454.33 7747.61 2483.82C7727.95 2513.31 7718.12 2551.16 7718.12 2597.36V2830.34H7844.94V2973.37H7439.43V2830.34H7527.91V2452.86H7440.91V2308.35H7718.12V2408.62C7760.39 2332.93 7827.73 2295.08 7920.14 2295.08C7968.31 2295.08 8012.54 2306.88 8052.85 2330.47C8093.15 2354.06 8121.17 2389.94 8136.9 2438.11C8176.22 2342.76 8248.47 2295.08 8353.65 2295.08C8413.62 2295.08 8466.7 2313.76 8512.9 2351.11C8559.11 2388.47 8582.21 2446.47 8582.21 2525.11V2830.34H8670.68V2973.37Z" fill="#121212"/>
<path d="M8788.61 2355.54C8846.61 2331.94 8894.78 2316.22 8933.11 2308.35C8972.44 2299.5 9019.13 2295.08 9073.2 2295.08C9144.96 2295.08 9206.89 2313.76 9258.99 2351.11C9311.09 2388.47 9337.14 2444.99 9337.14 2520.69V2809.7C9337.14 2844.1 9352.38 2861.31 9382.85 2861.31C9391.7 2861.31 9401.04 2859.83 9410.87 2856.88L9412.34 2957.15C9374 2977.79 9334.19 2988.12 9292.9 2988.12C9205.41 2988.12 9156.75 2944.37 9146.92 2856.88V2855.41C9128.25 2888.83 9101.21 2919.3 9065.82 2946.83C9031.42 2974.35 8987.18 2988.12 8933.11 2988.12C8884.95 2988.12 8838.74 2973.86 8794.51 2945.35C8750.27 2916.85 8728.15 2867.7 8728.15 2797.9C8728.15 2716.31 8760.59 2662.24 8825.47 2635.7C8891.34 2609.16 8962.11 2595.89 9037.81 2595.89C9080.08 2595.89 9116.45 2597.85 9146.92 2601.79V2579.67C9146.92 2545.26 9142.01 2511.84 9132.18 2479.4C9123.33 2446.96 9091.87 2430.74 9037.81 2430.74C9018.15 2430.74 8999.96 2432.21 8983.25 2435.16C8967.52 2437.13 8951.79 2442.04 8936.06 2449.91L8911 2544.28L8759.12 2528.06L8788.61 2355.54ZM9146.92 2702.05V2693.21C9131.2 2691.24 9114.98 2689.28 9098.26 2687.31C9082.54 2685.34 9066.81 2684.36 9051.08 2684.36C9017.66 2684.36 8988.16 2690.75 8962.61 2703.53C8937.05 2715.33 8924.27 2739.41 8924.27 2775.78C8924.27 2797.41 8930.17 2815.59 8941.96 2830.34C8953.76 2845.09 8973.91 2852.46 9002.42 2852.46C9035.84 2852.46 9066.81 2840.66 9095.31 2817.07C9124.81 2792.49 9142.01 2754.16 9146.92 2702.05Z" fill="#121212"/>
<path d="M10032.9 2766.93C10023.1 2843.61 9996.55 2899.64 9953.29 2935.03C9910.04 2970.42 9854.01 2988.12 9785.2 2988.12C9711.47 2988.12 9651.5 2969.93 9605.3 2933.56C9560.08 2896.2 9537.47 2843.12 9537.47 2774.31V2444.01H9443.1V2308.35H9537.47V2106.34H9727.69V2308.35H9966.56V2444.01H9727.69V2741.87C9727.69 2799.87 9754.23 2828.87 9807.31 2828.87C9819.11 2828.87 9834.84 2823.95 9854.5 2814.12C9875.14 2803.31 9888.41 2773.32 9894.31 2724.17L10032.9 2766.93Z" fill="#121212"/>
<path d="M10704.5 2763.99C10699.6 2822.97 10670.6 2875.07 10617.5 2920.29C10564.4 2965.51 10490.2 2988.12 10394.8 2988.12C10295.5 2988.12 10213.5 2960.1 10148.6 2904.07C10084.7 2848.03 10052.7 2764.48 10052.7 2653.39C10052.7 2551.16 10081.7 2466.13 10139.7 2398.3C10198.7 2329.49 10280.8 2295.08 10386 2295.08C10478.4 2295.08 10553.1 2321.62 10610.1 2374.71C10668.1 2427.79 10697.6 2497.58 10698.6 2584.09C10698.6 2616.53 10695.1 2648.48 10688.3 2679.94H10251.8C10262.6 2785.12 10314.7 2837.71 10408.1 2837.71C10459.2 2837.71 10493.6 2825.43 10511.3 2800.85C10530 2776.27 10541.3 2754.16 10545.2 2734.49L10704.5 2763.99ZM10502.5 2569.35C10506.4 2535.92 10499 2504.47 10480.4 2474.97C10462.7 2445.48 10431.2 2430.74 10386 2430.74C10346.7 2430.74 10316.2 2443.52 10294.6 2469.08C10272.9 2494.64 10259.2 2528.06 10253.3 2569.35H10502.5Z" fill="#121212"/>
<path d="M6651.23 4487.37H6247.21V4319.27H6350.43V4084.82H5944.93V4319.27H6048.14V4487.37H5644.12V4319.27H5747.34V3697.01H5644.12V3528.92H6048.14V3697.01H5944.93V3918.2H6350.43V3697.01H6247.21V3528.92H6651.23V3697.01H6548.01V4319.27H6651.23V4487.37Z" fill="#121212"/>
<path d="M7522.97 4487.37H7236.9V4385.63C7192.67 4462.3 7121.4 4500.64 7023.09 4500.64C6960.18 4500.64 6905.62 4481.96 6859.42 4444.61C6813.22 4407.25 6790.12 4349.26 6790.12 4270.61V3965.38H6701.64V3822.35H6980.33V4196.89C6980.33 4254.88 6989.67 4296.17 7008.35 4320.75C7028.01 4344.34 7056.52 4356.14 7093.87 4356.14C7139.09 4356.14 7173.99 4341.39 7198.57 4311.9C7224.12 4282.41 7236.9 4244.56 7236.9 4198.36V3965.38H7129.26V3822.35H7427.12V4344.34H7522.97V4487.37Z" fill="#121212"/>
<path d="M8325.06 4139.38C8325.06 4237.68 8299.01 4322.71 8246.91 4394.47C8195.79 4466.24 8120.1 4502.12 8019.83 4502.12C7918.58 4502.12 7847.31 4463.78 7806.02 4387.1C7804.05 4403.81 7801.6 4420.53 7798.65 4437.24C7796.68 4453.95 7794.22 4470.66 7791.28 4487.37H7601.06C7607.94 4452.97 7613.84 4418.56 7618.75 4384.15C7623.67 4349.75 7626.13 4315.83 7626.13 4282.41V3617.39H7537.65V3472.88H7816.34V3949.16C7834.04 3910.82 7860.58 3877.89 7895.97 3850.37C7932.34 3822.84 7980.51 3809.08 8040.47 3809.08C8124.03 3809.08 8192.35 3838.08 8245.44 3896.08C8298.52 3954.08 8325.06 4035.18 8325.06 4139.38ZM8127.47 4155.6C8127.47 4091.7 8113.71 4043.04 8086.18 4009.62C8058.66 3976.2 8022.29 3959.48 7977.07 3959.48C7925.95 3959.48 7886.14 3978.16 7857.63 4015.52C7830.1 4052.87 7816.34 4096.12 7816.34 4145.28V4161.5C7816.34 4215.56 7829.61 4261.27 7856.16 4298.63C7883.68 4335 7922.51 4353.19 7972.64 4353.19C8015.9 4353.19 8052.27 4337.46 8081.76 4306C8112.23 4273.56 8127.47 4223.43 8127.47 4155.6Z" fill="#121212"/>
</svg>
